<svg data-v-6a4e53c7="" width="100%" height="100%" viewBox="0 0 1136 1533" fill="none" xmlns="http://www.w3.org/2000/svg" preserveAspectRatio="xMidYMid meet"><!----><g id="body/tee1"><path fill-rule="evenodd" clip-rule="evenodd" d="M921.281 1192.02C917.25 1169.26 913.555 1146.43 910.197 1123.56C908.603 1112.7 907.048 1101.83 905.65 1090.94C904.671 1083.31 903.18 1074.59 908.37 1068.94C915.673 1060.99 922.307 1054.18 923.201 1042.79C924.042 1032.08 920.418 1020.39 918.152 1009.99C913.4 988.175 907.484 966.628 900.947 945.287C894.306 923.603 887.024 902.124 879.637 880.686C872.731 860.642 866.092 840.418 857.097 821.186C840.026 784.691 811.146 757.664 775.454 739.618C766.577 735.13 748.472 719.108 739.198 715.521C730.672 712.223 730.702 721.854 722.311 718.226C715.603 715.326 709.357 711.459 705.601 704.982C701.523 697.95 691.297 688.114 689.74 679.927C686.441 662.576 690.014 647.808 677.63 634.748C666.636 623.151 651.859 615.207 636.569 610.942C602.933 601.56 558.075 608.119 537.781 639.374C528.088 654.3 524.701 672.342 511.622 684.523C500.201 695.16 502.757 702.432 487.965 707.913C487.127 708.225 464.42 703.354 463.582 703.665C447.4 700.203 431.933 709.896 417.087 715.521C394.954 723.906 373.882 734.82 354.085 747.79C314.166 773.946 279.976 807.909 251.789 846.342C223.369 885.091 201.318 928.524 185.617 973.917C181.804 984.943 178.379 996.103 175.358 1007.37C173.667 1013.68 171.86 1020.22 173.919 1026.68C175.603 1031.96 179.349 1035.89 183.748 1039.06C189.711 1043.36 201.672 1046.15 201.439 1054.79C201.261 1061.36 199.032 1068.28 197.944 1074.77C196.649 1082.5 195.585 1090.28 194.521 1098.05C189.681 1133.4 185.914 1168.95 184.248 1204.6C182.608 1239.7 181.247 1275.52 183.682 1310.61C183.843 1312.92 184.533 1315.05 185.646 1316.84C184.607 1317.24 184.527 1319.18 185.82 1319.45C186.726 1319.64 187.63 1319.84 188.536 1320.03C190.418 1321.45 192.765 1322.33 195.466 1322.41C197.297 1322.47 199.127 1322.55 200.956 1322.64C220.257 1326.68 239.555 1330.49 259.108 1333.38C282.876 1336.88 306.714 1339.74 330.626 1342.07C379.761 1346.85 428.509 1345.26 477.709 1342.69C526.833 1340.12 575.928 1339.51 625.103 1340.79C674.321 1342.07 723.521 1344.21 772.75 1345.09C827.749 1346.07 882.664 1344.57 937.504 1340.19C945.023 1339.6 949.675 1333.61 948.192 1326.15C939.307 1281.4 929.238 1236.96 921.281 1192.02Z" fill="white"></path><path fill-rule="evenodd" clip-rule="evenodd" d="M417.087 715.521L418.161 715.107C432.679 709.436 447.789 700.285 463.581 703.665C464.14 703.457 474.416 705.552 481.454 706.88L474.773 713.853L462.984 716.121C503.657 783.249 551.762 816.813 607.298 816.813C662.835 816.813 704.976 783.249 733.723 716.121L737.645 715.036C738.13 715.148 738.646 715.307 739.198 715.521C748.472 719.108 766.577 735.129 775.454 739.617C811.146 757.664 840.026 784.69 857.097 821.186C865.792 839.776 872.286 859.294 878.947 878.68L879.637 880.685C887.024 902.123 894.306 923.603 900.947 945.286C907.2 965.7 912.884 986.301 917.526 1007.15L918.152 1009.99C920.418 1020.39 924.042 1032.08 923.201 1042.79C922.883 1046.85 921.836 1050.33 920.289 1053.48L839.843 1082.43L878.169 1343.82C843.062 1345.33 807.923 1345.72 772.75 1345.09C723.521 1344.21 674.321 1342.07 625.103 1340.79C577.418 1339.55 529.809 1340.08 482.175 1342.46L470.078 1343.08C423.465 1345.41 377.22 1346.6 330.626 1342.07L327.451 1341.76L327.451 1303.52L343.818 1090.61L260.873 1075L179.451 1035.45C176.991 1032.99 175.017 1030.12 173.919 1026.68C172.012 1020.7 173.421 1014.64 174.983 1008.77L175.358 1007.37C178.379 996.103 181.804 984.943 185.617 973.917C201.318 928.523 223.369 885.09 251.789 846.341C279.976 807.908 314.166 773.945 354.085 747.789C373.882 734.819 394.954 723.905 417.087 715.521Z" fill="white"></path><path fill-rule="evenodd" clip-rule="evenodd" d="M448.236 702.564C453.322 702.343 458.508 703.166 463.582 703.665C464.024 703.708 464.192 704.39 463.694 704.494C454.613 706.391 445.632 708.986 436.713 711.622L432.895 712.752C422.838 715.727 413.076 718.796 403.34 722.764C383.936 730.672 365.507 741.346 348.546 753.609C283.234 800.83 235.964 872.324 206.134 946.345C198.033 966.447 191.169 987.049 185.609 1008C184.257 1013.1 182.985 1018.21 181.779 1023.35C181.425 1024.85 179.882 1028.7 180.728 1030.24C181.476 1031.61 184.384 1032.45 185.735 1033.15L190.296 1035.52C199.193 1040.1 214.012 1047.64 215.499 1048.38L217.816 1049.52C255.727 1068.1 296.234 1083.86 338.896 1084.95L339.23 1081.31V1081.31C341.132 1061.17 343.628 1040.92 349.076 1021.4C349.369 1020.35 350.704 1020.7 350.826 1021.64C353.861 1044.75 352.891 1068.04 351.832 1091.26C349.957 1132.38 347.467 1173.48 345.254 1214.58C344.146 1235.15 342.714 1255.7 341.421 1276.25C340.126 1296.84 339.707 1317.93 336.75 1338.35C336.091 1342.9 330.759 1345.38 326.721 1344.9C322.253 1344.37 318.816 1340.43 318.795 1335.92C318.741 1324.02 320.236 1311.99 321.067 1300.12C321.856 1288.84 322.703 1277.57 323.571 1266.3C326.743 1225.17 330.392 1184.09 333.767 1142.97C334.963 1128.39 336.255 1113.82 337.585 1099.26C292.392 1097.8 250.171 1081.06 209.893 1061.5C209.31 1074.74 207.902 1087.95 206.539 1101.13C202.734 1137.92 199.379 1174.69 196.868 1211.59C195.6 1230.23 194.677 1248.89 193.873 1267.55C193.478 1276.72 193.156 1285.9 192.909 1295.07C192.826 1298.13 192.751 1301.19 192.685 1304.25L192.548 1311.26C192.435 1315.7 191.984 1319.81 188.248 1323.05C184.453 1326.33 179.327 1326.5 175.571 1323.05C170.543 1318.42 171.432 1312.11 171.581 1305.89C171.705 1300.64 171.854 1295.4 172.027 1290.16C172.374 1279.67 172.817 1269.19 173.356 1258.71C175.242 1222.07 179.01 1185.58 183.935 1149.24L185.858 1135.21C189.448 1109.13 193.39 1082.46 201.416 1057.33C198.291 1055.78 195.175 1054.21 192.071 1052.64C186.565 1049.85 180.872 1047.24 175.52 1044.16C171.274 1041.72 167.612 1038.37 166.43 1033.43C165.111 1027.93 167.127 1021.9 168.466 1016.54L168.583 1016.06C169.896 1010.66 171.31 1005.27 172.802 999.91C178.852 978.171 186.333 956.856 195.088 936.061C212.618 894.429 235.245 854.878 262.884 819.117C287.763 786.927 317.153 757.735 351.599 735.841C368.439 725.137 386.385 716.348 405.364 710.134C414.235 707.23 423.887 704.704 433.175 703.664C438.185 703.104 443.202 702.783 448.236 702.564ZM538.349 636.594C544.393 630.104 556.401 636.82 553.499 645.414C546.673 665.633 535.803 684.076 518.839 697.362C502.893 709.852 483.878 717.963 463.4 716.232C463.242 716.218 463.105 716.178 462.984 716.121L464.749 718.515C478.604 737.256 493.22 755.738 510.836 771.056C546.729 802.267 595.599 819.101 642.789 807.126C679.917 797.705 712.627 768.346 722.247 730.93C720.868 731.548 719.229 731.759 717.43 731.368C709.733 729.697 702.113 721.602 697.149 715.798C691.779 709.519 687.585 702.739 684.511 695.075C678.885 681.049 677.081 662.99 684.763 649.403C685.711 647.728 687.897 648.667 688.083 650.302L688.376 652.855C689.857 665.588 691.701 677.905 697.705 689.513C700.643 695.193 704.165 700.737 708.452 705.494C710.746 708.039 713.233 710.471 715.918 712.605C718.535 714.685 721.701 716.188 724.046 718.573L724.476 719.031L724.488 718.949C725.081 713.908 728.616 711.687 732.075 711.826C735.423 711.961 739.354 713.434 740.877 714.14L741.021 714.208C764.373 725.418 785.88 740.029 806.12 756.239C847.976 789.763 879.337 833.588 894.532 885.196C901.99 910.525 906.269 936.624 910.787 962.602L913.568 978.518C917.784 1002.5 922.494 1026.95 932.012 1049.26C934.474 1055.03 932.576 1060.44 926.539 1062.71C919.001 1065.55 911.435 1068.29 903.857 1071C907.578 1086.96 909.847 1103.48 912.635 1119.52C918.561 1153.62 925.822 1187.5 932.048 1221.56C935.231 1238.97 938.103 1256.44 941.283 1273.85C942.814 1282.24 944.412 1290.61 945.966 1298.99C946.803 1303.51 947.562 1308.05 948.361 1312.57L948.5 1313.33C948.958 1315.71 949.533 1318.18 948.876 1320.57C948.127 1323.3 946 1325.22 944.101 1327.18C942.538 1328.79 940.279 1328.8 938.364 1327.92L937.734 1327.63C934.314 1326.03 931.635 1324.43 930.421 1320.57C929.653 1318.13 929.376 1315.38 928.874 1312.86C927.911 1308.04 926.998 1303.2 926.136 1298.36C924.412 1288.67 922.728 1278.97 921.084 1269.26L919.549 1260.17C914.278 1228.84 909.273 1197.32 906.743 1165.66C905.621 1151.61 904.431 1137.58 903.231 1123.54L902.329 1113.02C901.189 1099.69 899.796 1086.03 899.599 1072.52L895.068 1074.13V1074.13L872.957 1081.95V1081.95C867.475 1083.89 860.495 1087.86 854.595 1087.13C851.707 1086.78 849.505 1085.87 847.805 1084.22C849.841 1112.95 852.597 1141.64 856.27 1170.17C859.612 1196.14 863.317 1222.07 867.693 1247.88C869.86 1260.66 872.087 1273.43 874.506 1286.17C875.715 1292.54 876.963 1298.9 878.249 1305.25C878.89 1308.42 879.653 1311.6 880.153 1314.79C880.725 1318.45 879.717 1320.7 877.672 1323.72C875.993 1326.19 872.634 1327.46 869.911 1325.75C866.305 1323.49 864.424 1321.53 863.363 1317.41C862.399 1313.66 861.813 1309.76 861.067 1305.97C859.69 1298.97 858.359 1291.96 857.074 1284.95C854.387 1270.27 851.91 1255.57 849.698 1240.81C841.903 1188.84 836.957 1136.44 834.459 1083.95C833.226 1058.05 832.845 1032.13 833.064 1006.21C833.176 992.922 833.61 979.596 834.55 966.341C835.502 952.924 837.482 939.775 839.25 926.487C839.312 926.019 839.972 925.992 840 926.487C840.837 941.385 842.149 956.266 842.792 971.203C843.406 985.456 843.675 999.732 844.163 1013.99C844.804 1032.73 845.693 1051.48 846.87 1070.22C849.001 1067.89 852.213 1066.55 855.427 1067.07C860.083 1066.1 865.095 1063.65 869.534 1062.17L886.268 1056.58V1056.58C895.065 1053.64 903.862 1050.73 912.69 1047.9C904.797 1021.34 899.391 994.393 894.774 967.051L892.715 954.755C888.639 930.551 884.245 906.335 876.862 882.896C869.101 858.254 857.487 835.344 842.08 814.597C826.893 794.15 808.416 776.146 789.392 759.306C773.105 744.89 755.682 731.874 739.07 717.854C739.244 718.783 739.281 719.806 739.128 720.93C735.596 746.78 722.111 770.853 703.318 788.758C665.563 824.729 609.676 832.192 561.354 815.324C514.611 799.008 473.284 760.366 458.683 712.549C458.433 711.731 459.529 711.406 459.969 712.007C460.779 713.117 461.593 714.227 462.408 715.337C462.353 714.896 462.582 714.416 463.126 714.206C480.162 707.628 496.891 698.299 509.661 685.102C515.885 678.669 521.317 671.381 525.605 663.521C527.659 659.756 529.504 655.857 530.976 651.828L531.35 650.786C533.134 645.739 534.625 640.593 538.349 636.594Z" fill="black"></path></g><g id="head/pomp"><path fill-rule="evenodd" clip-rule="evenodd" d="M757.415 353.222C753.554 329.862 766.226 325.016 757.415 302.811C737.833 261.667 684.468 263.44 645.308 260.277C601.63 258.603 557.422 264.369 517.156 281.875C507.538 286.056 498.287 290.973 489.419 296.56C481.751 301.391 482.805 310.577 487.64 315.588C452.775 364.96 472.716 431.232 444.897 483.202C439.758 492.491 432.961 500.821 428.494 510.487C421.704 525.18 421.269 546.233 436.667 555.99C458.354 567.631 470.456 544.584 481.112 577.993C534.33 694.483 641.329 701.044 742.905 640.31C751.693 635.422 760.662 629.897 767.298 622.217C782.361 605.266 780.587 581.428 780.92 560.259C781.106 547.854 781.137 535.447 781.016 523.039C780.542 472.781 763.885 403.065 757.415 353.222Z" fill="white"></path><path fill-rule="evenodd" clip-rule="evenodd" d="M541.067 213.508C602.397 185.688 671.958 175.138 738.858 182.058C771.878 185.468 804.464 192.784 835.475 204.669L838.193 205.719C845.848 208.666 854.1 211.59 859.918 217.588C866.689 224.558 868.588 235.098 863.748 243.708C859.988 250.398 853.228 255.197 846.018 257.758C848.558 259.838 850.968 262.158 853.228 264.748C857.038 269.088 857.328 275.277 853.228 279.558C845.328 287.808 835.078 293.777 824.038 296.638C825.278 302.628 824.608 309.258 821.948 315.228C814.315 332.365 792.813 334.407 776.267 333.389L775.768 333.358L774.848 343.888C774.358 349.498 770.998 353.848 765.298 354.708C765.098 354.738 764.897 354.758 764.698 354.777C773.718 387.398 779.168 421.027 784.198 454.458C786.826 471.909 789.178 489.4 791.43 506.903L792.178 512.738C794.578 531.608 797.578 550.668 798.618 569.678C799.548 586.928 796.258 603.398 785.628 617.318C776.088 629.798 763.078 639.148 749.088 646.088C717.478 661.777 684.208 673.458 649.248 678.878L646.916 679.236C633.421 681.296 619.517 683.032 606.168 679.298C594.439 676.018 582.138 667.558 584.788 653.968C585.678 649.378 592.098 649.178 594.298 652.728L594.805 653.541C597.444 657.727 600.335 661.617 604.939 663.777C610.328 666.318 616.578 667.027 622.468 667.098C638.918 667.288 656.048 663.188 671.888 659.078C701.468 651.399 731.848 638.878 756.078 619.908C766.388 611.848 774.668 601.768 777.588 588.798C781.198 572.808 777.878 555.328 776.238 539.258C772.863 506.098 768.846 473 764.608 439.939L763.758 433.328C760.189 405.688 756.439 378.038 754.658 350.238C753.918 349.228 753.418 348.078 753.218 346.818L752.939 345.008C752.698 343.458 752.658 342.038 752.828 340.728C752.838 335.708 752.978 330.718 753.268 325.697C753.317 324.798 753.358 323.898 753.388 323.008C748.168 324.158 742.908 325.088 737.628 325.878C700.508 331.468 662.808 332.868 625.388 330.088C606.718 328.697 588.189 326.308 569.718 323.318C560.317 321.798 550.948 320.118 541.608 318.238C534.858 316.888 528.248 315.058 521.608 313.338C514.758 323.308 511.058 335.578 511.778 347.628C512.588 361.378 521.748 373.848 519.178 387.898C516.766 401.047 505.5 405.124 494.378 408.38L489.648 409.747C486.009 410.809 483.366 411.835 482.708 416.208C481.578 423.718 482.968 432.168 483.258 439.718C483.608 448.648 484.067 457.578 484.278 466.508C484.388 471.128 484.567 475.768 484.558 480.388C484.548 483.668 484.058 485.908 482.788 488.027C483.768 489.258 484.647 490.588 485.428 491.998C485.678 492.458 485.058 492.947 484.689 492.568C483.698 491.538 482.647 490.608 481.538 489.777C480.978 490.468 480.328 491.168 479.567 491.918L479.508 491.838C477.128 494.208 473.348 494.438 470.397 491.918L469.622 491.247C467.462 489.354 465.978 487.777 465.378 484.648C465.348 484.488 465.317 484.328 465.298 484.168C459.808 483.978 454.228 485.277 449.288 488.008C441.458 492.338 435.948 498.508 432.689 506.128C433.988 507.648 435.508 509.008 437.278 510.148C437.528 510.318 437.308 510.688 437.038 510.558C435.228 509.708 433.608 508.658 432.158 507.428C430.988 510.428 430.168 513.648 429.668 517.058C427.908 529.098 431.048 543.808 441.928 550.668C446.638 553.638 452.018 555.248 457.598 555.268C460.317 555.277 462.668 554.818 465.308 554.168C467.098 553.728 468.878 553.088 470.748 553.088C472.348 553.088 473.828 553.488 475.198 554.288L474.818 554.321C473.894 554.408 474.072 554.447 475.358 554.447C479.358 554.618 481.647 558.678 479.808 562.208L479.566 562.753C479.516 562.863 479.472 562.954 479.439 563.027L479.293 563.963C479.279 564.052 479.264 564.144 479.248 564.238L479.192 564.427C479.182 564.458 479.171 564.488 479.158 564.518L485.157 573.666C492.512 584.857 500.031 596.006 508.588 606.228C514.588 613.398 520.948 620.428 527.668 626.938C533.708 632.788 540.948 635.608 547.788 640.208C551.439 642.648 552.508 647.758 549.189 651.048C539.448 660.718 525.658 653.038 517.668 645.178C510.108 637.728 503.578 628.768 497.948 619.798C487.958 603.848 480.008 586.888 476.528 568.478C475.078 569.808 473.228 570.638 471.358 571.288C467.608 572.588 463.478 573.128 459.518 573.268C451.928 573.518 444.328 571.678 437.498 568.418C409.708 555.168 405.628 515.488 422.618 492.088C420.327 485.444 419.047 478.236 417.657 472.088L417.025 469.341C409.998 438.648 405.282 406.333 417.738 376.258C419.338 372.378 421.138 368.598 423.268 364.978C424.978 362.068 427.918 358.968 428.728 355.658C430.528 348.388 419.418 340.748 416.178 334.978C412.368 328.208 411.828 320.218 417.018 314.027C417.678 313.248 418.397 312.527 419.178 311.898C414.258 302.978 414.028 291.758 420.508 282.958C424.768 277.158 431.268 273.098 438.368 271.868C442.708 271.118 447.928 271.398 452.698 272.738C478.817 248.488 508.618 228.228 541.067 213.508ZM440.767 516.938C447.738 510.788 455.438 507.568 464.938 508.378C474.488 509.197 485.988 513.148 491.597 521.338C496.028 527.808 486.998 537.298 480.498 532.438C474.578 528.008 470.627 523.008 463.278 520.628C456.677 518.498 448.507 517.128 441.597 518.348C440.837 518.478 440.078 517.538 440.767 516.938Z" fill="black"></path></g><g id="face/smile"><path fill-rule="evenodd" clip-rule="evenodd" d="M677.587 606.927C670.864 604.184 664.866 599.61 660.481 593.766C658.957 591.735 658.561 589.59 658.881 587.628C659.241 585.421 660.546 583.422 662.326 582.081C664.112 580.735 666.345 580.072 668.504 580.41C670.381 580.704 672.248 581.731 673.727 583.862L674.035 584.288C676.642 587.815 680.04 590.709 683.91 592.574C687.641 594.372 691.814 595.211 696.132 594.723C704.356 593.794 710.024 589.346 716.049 583.307C716.796 582.544 717.543 581.758 718.294 580.959C718.768 580.234 719.426 579.769 720.157 579.524C720.968 579.253 721.886 579.269 722.726 579.562C723.537 579.845 724.262 580.381 724.747 581.095C725.209 581.773 725.471 582.61 725.386 583.574C724.835 589.833 721.562 595.419 716.914 599.806C711.752 604.677 704.909 608.047 698.466 609.229C691.368 610.531 684.136 609.598 677.587 606.927ZM701.814 510.367C709.366 514.957 720.872 525.66 712.748 537.04C703.186 547.073 689.418 535.569 682.634 530.366C676.343 526.334 669.275 536.705 675.112 541.413C724.136 577.708 744.031 511.567 705.634 504.97C701.406 504.243 699.836 508.947 701.814 510.367ZM613.963 468.146C614.798 457.79 630.57 455.438 632.139 465.686C633.544 474.866 631.89 483.299 627.755 491.564C623.804 499.46 613.874 495.777 613.123 488.587C612.116 478.949 613.444 474.589 613.963 468.146ZM734.027 463.562C736.226 460.682 739.401 458.716 743.205 459.826C755.09 463.3 751.587 480.173 747.413 488.386C745.145 492.846 737.814 493.977 734.501 490.049C729.101 483.646 726.515 470.857 733.38 464.549C733.566 464.223 733.773 463.894 734.027 463.562ZM627.588 422.831L629.465 422.502C635.273 421.497 642.494 420.532 646.603 425.202C648.782 427.678 649.532 432.28 646.603 434.65C641.451 438.82 635.755 437.204 629.581 437.557C624.493 437.849 619.603 438.691 614.702 440.092C603.95 443.165 595.189 448.775 586.006 454.935C584.801 455.743 583.571 454.202 584.146 453.075C589.447 442.692 599.72 434.163 610.01 428.964C615.502 426.189 621.512 423.887 627.588 422.831ZM723.193 418.179L724.63 418.473C740.267 421.742 760.583 428.271 767.988 443.631C768.271 445.803 767.972 446.268 767.73 446.572L767.649 446.674C767.45 446.933 767.29 447.291 766.349 447.587C766.087 447.525 765.824 447.459 765.557 447.389C762.163 446.499 759.477 445.274 756.877 444.002L754.058 442.613C750.788 441.01 747.488 439.465 743.992 438.324C736.53 435.89 728.854 434.175 721.06 433.26C719.37 433.062 717.744 432.491 716.46 431.514C715.242 430.587 714.311 429.302 713.887 427.596C713.337 425.386 713.495 423.714 714.68 421.721C715.572 420.224 716.847 419.187 718.311 418.591C719.804 417.984 721.503 417.841 723.193 418.179Z" fill="black"></path></g><!----><g id="accessory/glasses"><path fill-rule="evenodd" clip-rule="evenodd" d="M808.09 484.282C798.556 548.771 732.002 555.903 720.177 491.881C722.075 491.05 723.44 489.414 723.155 486.238C723.088 472.286 727.419 457.54 740.005 449.781C753.011 441.775 768.232 440.981 783.283 441.183C812.005 440.499 811.401 464.506 808.09 484.282M709.758 456.235C700.744 455.855 689.34 456.173 681.265 461.665C679.045 455.687 673.277 449.304 667.449 445.891C689.111 446.525 711.409 444.393 733.233 442.738C728.009 446.299 723.149 451.649 719.99 457.834C717.059 456.271 712.861 456.417 709.758 456.235M670.026 491.119C645.031 577.155 582.64 539.655 575.838 528.629C563.569 510.383 561.261 466.029 571.948 454.17C587.246 443.446 608.903 446.206 626.975 445.943C660.176 446.391 683.756 456.323 670.026 491.119M837.603 451.548C830.812 450.66 823.555 450.481 817.241 453.471C815.297 445.208 809.194 438.3 802.303 435.26C801.469 434.214 801.594 433.652 798.745 433.809C781.25 428.551 761.673 431.333 744.861 436.725C718.309 438.961 690.452 440.724 663.677 443.805C638.595 432.541 562.902 430.89 558.198 458.653C552.281 457.768 542.204 453.111 537.232 459.428C500.761 453.245 463.076 461.838 426.447 465.665C417.227 467.363 412.478 485.661 422.944 485.411C428.828 483.814 422.763 474.017 430.686 473.28C466.027 469.42 500.595 463.944 536.298 463.303C535.056 469.468 559.912 469.869 560.279 466.269C560.332 466.296 560.388 466.314 560.442 466.338C554.3 489.228 559.844 522.17 570.944 536.364C586.496 554.95 625.541 560.282 642.854 548.324C665.187 537.287 688.42 481.885 681.894 463.479C693.738 459.725 705.447 460.852 717.739 462.764C714.925 470.713 710.067 490.281 717.056 491.978C715.773 530.828 751.13 555.069 783.724 539.132C811.935 525.889 821.801 483.971 818.349 458.528C821.861 465.314 851.349 457.926 837.603 451.548" fill="black"></path></g></svg>